<svg width="21" height="18" viewBox="0 0 21 18" fill="none" xmlns="http://www.w3.org/2000/svg">
<path d="M6.45217 17.3967C14.0958 17.3967 18.2758 11.0619 18.2758 5.56859C18.2758 5.38869 18.2722 5.20961 18.2641 5.03127C19.0774 4.44253 19.7793 3.71358 20.337 2.87859C19.5924 3.20974 18.7911 3.43263 17.9505 3.53312C18.8085 3.01848 19.4672 2.2043 19.7779 1.2338C18.9622 1.71789 18.0698 2.05915 17.1392 2.24287C16.3808 1.43482 15.3012 0.929443 14.1058 0.929443C11.8109 0.929443 9.94997 2.79115 9.94997 5.08598C9.94997 5.41223 9.98649 5.72948 10.0578 6.03387C6.604 5.86002 3.54142 4.2058 1.49179 1.69048C1.12263 2.32489 0.928458 3.04592 0.929103 3.77992C0.929103 5.2222 1.66272 6.49541 2.77837 7.2403C2.11845 7.22014 1.47301 7.04183 0.896333 6.72035C0.895715 6.73781 0.895715 6.75481 0.895715 6.77346C0.895715 8.7867 2.32812 10.4676 4.22959 10.8485C3.87247 10.9458 3.50396 10.995 3.13382 10.9948C2.86651 10.9948 2.606 10.9685 2.35282 10.9199C2.88187 12.5716 4.41596 13.7736 6.2348 13.8072C4.81249 14.9224 3.02081 15.5866 1.07352 15.5866C0.742261 15.5869 0.411273 15.5677 0.0822754 15.529C1.92142 16.7083 4.10522 17.3964 6.45237 17.3964" fill="white"/>
</svg>
